<?xml version="1.0" encoding="iso-8859-1"?>
<!-- Generator: Adobe Illustrator 19.0.0, SVG Export Plug-In . SVG Version: 6.00 Build 0)  -->
<svg version="1.1" id="Capa_1" xmlns="http://www.w3.org/2000/svg" xmlns:xlink="http://www.w3.org/1999/xlink" x="0px" y="0px"
	 viewBox="0 0 512.001 512.001" style="enable-background:new 0 0 512.001 512.001;" xml:space="preserve">
<rect x="189.94" y="49.549" style="fill:#D2A6C3;" width="132.13" height="16.516"/>
<rect x="181.68" style="fill:#E4CADB;" width="148.65" height="16.516"/>
<rect x="189.94" y="445.94" style="fill:#D2A6C3;" width="132.13" height="16.516"/>
<rect x="181.68" y="495.48" style="fill:#E4CADB;" width="148.65" height="16.516"/>
<rect x="181.68" y="247.74" style="fill:#D2A6C3;" width="148.65" height="16.516"/>
<g>
	<rect x="189.94" y="198.19" style="fill:#E4CADB;" width="132.13" height="16.516"/>
	<rect x="189.94" y="297.29" style="fill:#E4CADB;" width="132.13" height="16.516"/>
</g>
<path style="fill:#A5CDFF;" d="M165.392,512h16.556c4.3,0,7.954-3.307,8.213-7.599c3.063-50.852,36.978-77.137,75.961-107.345
	c41.702-32.327,88.976-68.96,88.976-141.056s-47.274-108.73-88.976-141.056c-38.983-30.208-72.898-56.493-75.961-107.345
	C189.903,3.307,186.248,0,181.948,0h-16.556c-4.65,0-8.512,3.848-8.264,8.491c3.553,66.532,48.72,101.533,88.752,132.565
	c40.879,31.677,76.185,59.04,76.185,114.944s-35.306,83.266-76.185,114.944c-40.032,31.032-85.199,66.033-88.752,132.565
	C156.88,508.151,160.743,512,165.392,512z"/>
<g>
	<path style="fill:#FF8087;" d="M266.122,114.944c5.484,4.251,11.061,8.586,16.617,13.056
		c34.927-28.103,68.916-61.94,72.113-119.125C355.121,4.086,351.39,0,346.592,0h-16.524c-4.273,0-7.97,3.25-8.224,7.515
		c-2.766,46.436-31.261,72.398-65.844,99.539C259.331,109.668,262.696,112.289,266.122,114.944z"/>
	<path style="fill:#FF8087;" d="M266.122,114.944c5.484,4.251,11.061,8.586,16.617,13.056
		c34.927-28.103,68.916-61.94,72.113-119.125C355.121,4.086,351.39,0,346.592,0h-16.524c-4.273,0-7.97,3.25-8.224,7.515
		c-2.766,46.436-31.261,72.398-65.844,99.539C259.331,109.668,262.696,112.289,266.122,114.944z"/>
</g>
<path style="fill:#8CB4EB;" d="M338.582,256c0-128-165.161-128-165.161-256h-8.028c-4.65,0-8.512,3.848-8.264,8.491
	c3.553,66.532,48.72,101.533,88.752,132.565c40.879,31.677,76.185,59.04,76.185,114.944s-35.306,83.266-76.185,114.944
	c-40.032,31.032-85.199,66.033-88.752,132.565c-0.248,4.643,3.614,8.491,8.264,8.491h8.028C173.42,384,338.582,384,338.582,256z"/>
<path style="fill:#E6646E;" d="M269.507,117.603C305.917,88.721,338.794,57.1,338.794,0h-8.725c-4.273,0-7.97,3.25-8.224,7.515
	c-2.766,46.436-31.261,72.398-65.844,99.539c3.33,2.613,6.695,5.234,10.121,7.889C267.239,115.809,268.383,116.729,269.507,117.603z
	"/>
<path style="fill:#FF8087;" d="M266.122,370.944c-40.879-31.677-76.185-59.04-76.185-114.944c0-51.218,29.659-78.483,66.065-107.054
	c-3.33-2.613-6.695-5.234-10.121-7.889c-5.484-4.251-11.061-8.586-16.617-13.056c-36.697,29.527-72.358,65.384-72.358,128
	c0,72.097,47.274,108.73,88.976,141.056c38.983,30.208,72.898,56.492,75.961,107.345c0.258,4.292,3.913,7.599,8.213,7.599h16.556
	c4.65,0,8.512-3.849,8.264-8.491C351.321,436.977,306.154,401.976,266.122,370.944z"/>
<path style="fill:#E6646E;" d="M173.633,256c0-56.989,32.749-88.599,69.075-117.435c-4.463-3.467-8.95-6.947-13.446-10.565
	c-36.697,29.527-72.358,65.384-72.358,128c0,72.097,47.274,108.73,88.976,141.056c38.983,30.208,72.898,56.492,75.961,107.345
	c0.259,4.292,3.913,7.599,8.213,7.599h8.741C338.794,384,173.633,384,173.633,256z"/>
<g>
</g>
<g>
</g>
<g>
</g>
<g>
</g>
<g>
</g>
<g>
</g>
<g>
</g>
<g>
</g>
<g>
</g>
<g>
</g>
<g>
</g>
<g>
</g>
<g>
</g>
<g>
</g>
<g>
</g>
</svg>
